<svg xmlns="http://www.w3.org/2000/svg" xmlns:xlink="http://www.w3.org/1999/xlink" style="vertical-align:-.505ex" width="2.155ex" height="2.259ex" viewBox="0 -755.5 927.8 972.7"><defs><path id="a" stroke-width="1" d="M52 648q0 22 13 35h11q42-3 105-3 118 0 139 3h10q6-6 6-9t-2-18q-5-15-9-19h-21q-22-2-30-2-29-5-32-15 0-2 29-251t30-251l73 117q73 117 146 236t75 123q4 7 4 15 0 24-44 28-18 0-18 11 0 1 2 13 3 14 6 18t13 4h12q10 0 34-1t64-1q69 0 87 2h7q7-7 7-11 0-17-9-32-3-3-17-3-13-1-24-2t-21-5-16-7-12-8-10-7-8-9-7-7L452 282Q272-9 266-16q-3-2-7-5l-18-1h-7q-18 0-18 7-3 6-39 320-38 318-39 321-5 11-62 11H59q-7 5-7 11z"/><path id="b" stroke-width="1" d="M184 600q0 24 19 42t44 19q18 0 30-12t13-30q0-23-20-42t-44-20q-15 0-28 10t-14 33zM21 287q0 8 9 31t24 51 44 51 60 22q39 0 65-23t27-62q0-17-14-56t-40-105-42-113q-5-22-5-32 0-25 17-25 9 0 19 3t23 14 27 35 25 59q3 12 5 14t17 2q20 0 20-10 0-8-9-31t-25-51-45-50-62-22q-32 0-59 21T74 74q0 17 5 32t43 114q38 101 44 121t7 39q0 24-17 24h-2q-30 0-55-33t-38-84q-1-1-2-3t-1-3-2-2-3-1-4 0-8 0H27q-6 6-6 9z"/></defs><g fill="currentColor" stroke="currentColor" stroke-width="0" transform="scale(1 -1)"><use xlink:href="#a"/><use x="825" y="-213" transform="scale(.707)" xlink:href="#b"/></g></svg>